<svg xmlns="http://www.w3.org/2000/svg" xmlns:xlink="http://www.w3.org/1999/xlink" xmlns:lucid="lucid" width="1224" height="798"><g transform="translate(-1041 -2403)" lucid:page-tab-id="0_0"><path d="M-1000 0h5500v3500h-5500z" fill="#fff"/><path d="M1366.37 2500c22.1 0 40 17.9 40 40s-17.9 40-40 40H1180c-22.1 0-40-17.9-40-40s17.9-40 40-40z" stroke="#000" stroke-width="2" fill="#fff"/><use xlink:href="#a" transform="matrix(1,0,0,1,1145,2505) translate(33.37196180555556 43.40277777777778)"/><use xlink:href="#b" transform="matrix(1,0,0,1,1145,2505) translate(105.72439236111111 43.40277777777778)"/><use xlink:href="#c" transform="matrix(1,0,0,1,1145,2505) translate(124.45269097222223 43.40277777777778)"/><path d="M1452.17 2540.47h-44.3v-.94h44.3zm110.44 0h-28.4v-.94h28.4z" stroke="#3a414a" stroke-width=".05" fill="#3a414a"/><path d="M1407.88 2540.47h-.54l.03-.46-.02-.47h.53z" fill="#3a414a"/><path stroke="#3a414a" stroke-width=".05" fill="#3a414a"/><path d="M1577.38 2540l-14.27 4.64.02-9.28z" fill="#3a414a"/><path d="M1578.92 2540l-16.28 5.3v-10.6zm-15.33 3.98l12.24-3.98-12.25-3.98z" stroke="#3a414a" stroke-width=".05" fill="#3a414a"/><use xlink:href="#d" transform="matrix(1,0,0,1,1452.1692162244622,2529.2447916666665) translate(0 17.22222222222222)"/><path d="M1806.37 2500c22.1 0 40 17.9 40 40s-17.9 40-40 40H1620c-22.1 0-40-17.9-40-40s17.9-40 40-40z" stroke="#000" stroke-width="2" fill="#fff"/><use xlink:href="#e" transform="matrix(1,0,0,1,1585,2505) translate(2.4420572916666714 43.40277777777778)"/><use xlink:href="#b" transform="matrix(1,0,0,1,1585,2505) translate(75.0115017361111 43.40277777777778)"/><use xlink:href="#f" transform="matrix(1,0,0,1,1585,2505) translate(93.73980034722221 43.40277777777778)"/><path d="M1502.93 2672.48l4.32 7.88 3.62 6 3.17 4.76 2.84 3.93 2.6 3.3 2.43 2.8 2.28 2.42 2.15 2.1 2.05 1.85 1.97 1.63 1.9 1.44 1.85 1.28 1.8 1.14 1.77 1.02 1.74.9 1.73.82 1.72.72.3.12-.34.9-.3-.13-1.75-.74-1.76-.83-1.8-.93-1.8-1.04-1.83-1.16-1.88-1.3-1.94-1.48-2-1.66-2.08-1.88-2.18-2.13-2.3-2.45-2.44-2.84-2.63-3.32-2.87-3.96-3.2-4.8-3.63-6.03-4.36-7.93-14.38-32.25h1.03zm-93.57-132.9l1.94.1 1.88.2 1.84.28 1.8.34 1.8.42 1.75.5 1.75.56 1.75.65 1.75.74 1.76.83 1.78.93 1.8 1.04 1.84 1.16 1.87 1.3 1.94 1.48 2 1.66 2.1 1.88 2.16 2.13 2.3 2.45 2.45 2.84 2.64 3.32 2.87 3.96 3.2 4.8 3.64 6.03 4.35 7.92 5.7 11.54 9.14 20.5h-1.04l-8.96-20.1-5.7-11.5-4.32-7.9-3.62-6-3.17-4.76-2.85-3.93-2.6-3.3-2.43-2.8-2.27-2.42-2.15-2.1-2.05-1.85-1.96-1.63-1.9-1.44-1.85-1.28-1.8-1.14-1.77-1.02-1.74-.9-1.73-.82-1.7-.72-1.72-.64-1.7-.56-1.73-.48-1.74-.4-1.77-.35-1.8-.27-1.84-.2-1.9-.1-1.46-.05.02-.94z" stroke="#3a414a" stroke-width=".05" fill="#3a414a"/><path d="M1407.9 2539.54l-.03.95-.53-.03.03-.46-.02-.48z" fill="#3a414a"/><path stroke="#3a414a" stroke-width=".05" fill="#3a414a"/><path d="M1557.4 2719.7l-14.86 1.97 1.68-9.1z" fill="#3a414a"/><path d="M1558.92 2720l-16.97 2.23 1.92-10.4zm-15.8 1.12l12.78-1.7-11.33-6.13z" stroke="#3a414a" stroke-width=".05" fill="#3a414a"/><use xlink:href="#g" transform="matrix(1,0,0,1,1405.046666486568,2619.137302668171) translate(0 17.22222222222222)"/><path d="M1775.66 2669.3c28 0 50.7 22.7 50.7 50.7 0 28-22.7 50.7-50.7 50.7H1610.7c-28 0-50.7-22.7-50.7-50.7 0-28 22.7-50.7 50.7-50.7z" stroke="#000" stroke-width="2" fill="#fff"/><use xlink:href="#h" transform="matrix(1,0,0,1,1565,2674.2903645833335) translate(82.52973958333334 24.40277777777778)"/><use xlink:href="#i" transform="matrix(1,0,0,1,1565,2674.2903645833335) translate(161.00196180555554 24.40277777777778)"/><use xlink:href="#j" transform="matrix(1,0,0,1,1565,2674.2903645833335) translate(14.426649305555543 56.66840277777778)"/><use xlink:href="#k" transform="matrix(1,0,0,1,1565,2674.2903645833335) translate(51.7571701388889 88.93402777777777)"/><path d="M1698.6 2636.75l-1.45 4.4-1.13 4.3-.92 4.55-.73 5.08-.5 5.94-.2 6.78-.95-.02.2-6.82.5-6 .74-5.12.93-4.6 1.14-4.36 1.45-4.45.4-1.07h1.03zm13.9-39.35l-.3 2.05-.92 4.6-1.15 4.36-1.46 4.46-.42 1h-1.04l.58-1.33 1.44-4.4 1.13-4.3.92-4.54.3-2.04z" stroke="#3a414a" stroke-width=".05" fill="#3a414a"/><path d="M1693.67 2667.8v.5h-.96l.02-.54z" fill="#3a414a"/><path stroke="#3a414a" stroke-width=".05" fill="#3a414a"/><path d="M1716.7 2597.17l-9.26-.65 5.63-13.9z" fill="#3a414a"/><path d="M1717.3 2597.7l-10.54-.75 6.42-15.87zm-9.17-1.6l7.94.55-3.1-12.5z" stroke="#3a414a" stroke-width=".05" fill="#3a414a"/><use xlink:href="#l" transform="matrix(1,0,0,1,1666.125901745681,2613.853386935244) translate(0 17.22222222222222)"/><path d="M1850.75 2712.5l-1.92 1.4-1.87 1.2-1.83 1.04-1.82.9-1.8.8-1.84.67-1.87.6-1.92.47-1.98.38-2.06.3-2.17.16-1.8.06v-.95l1.75-.04 2.1-.17 2.03-.3 1.92-.36 1.87-.46 1.8-.57 1.8-.65 1.77-.77 1.78-.88 1.8-1.02 1.8-1.18 1.57-1.13h1.54zm52.58-61.78l-1.64.82-1.8 1.02-1.82 1.18-1.88 1.37-1.98 1.6-2.1 1.9-2.28 2.33-2.58 2.92-3.1 3.92-14.87 22.7h-1.14l15.23-23.25 3.13-3.98 2.6-2.96 2.34-2.35 2.13-1.94 2.02-1.65 1.92-1.4 1.87-1.2 1.84-1.04 1.67-.83z" stroke="#3a414a" stroke-width=".05" fill="#3a414a"/><path d="M1827.9 2720.46l-.56.02.03-.48-.02-.47.52-.02z" fill="#3a414a"/><path stroke="#3a414a" stroke-width=".05" fill="#3a414a"/><path d="M1917.42 2647.2l-12.96 7.55-1.97-9.06z" fill="#3a414a"/><path d="M1918.92 2646.86l-14.78 8.63-2.25-10.35zm-14.13 7.15l11.12-6.5-12.82-1.27z" stroke="#3a414a" stroke-width=".05" fill="#3a414a"/><use xlink:href="#m" transform="matrix(1,0,0,1,1836.6665343284487,2690.4597042825862) translate(0 17.22222222222222)"/><path d="M2119.53 2580c36.9 0 66.84 29.93 66.84 66.84 0 36.92-29.93 66.84-66.84 66.84h-132.7c-36.9 0-66.83-29.92-66.83-66.84 0-36.9 29.93-66.84 66.84-66.84z" stroke="#000" stroke-width="2" fill="#fff"/><use xlink:href="#n" transform="matrix(1,0,0,1,1925.0000000000002,2585) translate(97.47657118055555 25.40277777777778)"/><use xlink:href="#o" transform="matrix(1,0,0,1,1925.0000000000002,2585) translate(1.8127170138888857 57.66840277777778)"/><use xlink:href="#p" transform="matrix(1,0,0,1,1925.0000000000002,2585) translate(92.06879340277779 57.66840277777778)"/><use xlink:href="#q" transform="matrix(1,0,0,1,1925.0000000000002,2585) translate(150.33702256944446 57.66840277777778)"/><use xlink:href="#r" transform="matrix(1,0,0,1,1925.0000000000002,2585) translate(221.82139756944446 57.66840277777778)"/><use xlink:href="#s" transform="matrix(1,0,0,1,1925.0000000000002,2585) translate(7.5740104166666615 89.93402777777777)"/><use xlink:href="#t" transform="matrix(1,0,0,1,1925.0000000000002,2585) translate(142.84961805555554 89.93402777777777)"/><use xlink:href="#u" transform="matrix(1,0,0,1,1925.0000000000002,2585) translate(207.04232638888888 89.93402777777777)"/><use xlink:href="#v" transform="matrix(1,0,0,1,1925.0000000000002,2585) translate(88.07444444444445 122.19965277777777)"/><path d="M1883.86 2838.5l3.76 10.85 2.83 7.18 2.33 5.22 1.98 4 1.74 3.2 1.56 2.56 1.4 2.13 1.3 1.78 1.2 1.52 1.1 1.3 1.05 1.1.67.65-.67.68-.67-.66-1.07-1.16-1.14-1.32-1.22-1.53-1.3-1.82-1.44-2.16-1.58-2.6-1.76-3.22-2-4.04-2.34-5.27-2.85-7.22-3.77-10.9-7.07-24.64h.98zm-55.7-118.96l.8.05.77.07.77.12.76.13.76.18.75.22.76.25.77.28.77.33.78.36.8.42.8.47.84.53.85.6.9.67.9.76.98.86 1 1 1.08 1.14 1.15 1.32 1.22 1.53 1.3 1.82 1.44 2.15 1.6 2.6 1.75 3.22 2 4.04 2.34 5.27 2.84 7.2 3.77 10.9 7.13 23.96.17.63h-.98l-.1-.35-7.1-23.93-3.78-10.86-2.83-7.18-2.3-5.23-2-4.02-1.73-3.17-1.56-2.57-1.4-2.12-1.3-1.77-1.18-1.5-1.12-1.3-1.04-1.1-.98-.97-.94-.85-.9-.72-.85-.66-.83-.57-.8-.5-.78-.46-.77-.4-.75-.36-.73-.3-.73-.28-.72-.23-.72-.2-.72-.17-.72-.14-.73-.1-.72-.08-.75-.05h-.27l.02-.96z" stroke="#3a414a" stroke-width=".05" fill="#3a414a"/><path d="M1827.9 2719.54l-.03.95-.52-.03.02-.47-.02-.48z" fill="#3a414a"/><path stroke="#3a414a" stroke-width=".05" fill="#3a414a"/><path d="M1917.52 2886.18l-14.9-1.6 3.8-8.47z" fill="#3a414a"/><path d="M1918.92 2886.8l-17-1.83 4.32-9.65zm-15.6-2.63l12.8 1.38-9.55-8.65z" stroke="#3a414a" stroke-width=".05" fill="#3a414a"/><use xlink:href="#w" transform="matrix(1,0,0,1,1851.5907684130302,2792.6338021391207) translate(0 17.22222222222222)"/><path d="M2119.53 2820c36.9 0 66.84 29.93 66.84 66.84 0 36.92-29.93 66.84-66.84 66.84h-132.7c-36.9 0-66.83-29.92-66.83-66.84 0-36.9 29.93-66.84 66.84-66.84z" stroke="#000" stroke-width="2" fill="#fff"/><use xlink:href="#x" transform="matrix(1,0,0,1,1925.0000000000002,2825) translate(95.21962673611112 25.40277777777778)"/><use xlink:href="#y" transform="matrix(1,0,0,1,1925.0000000000002,2825) translate(9.836805555555571 57.66840277777778)"/><use xlink:href="#z" transform="matrix(1,0,0,1,1925.0000000000002,2825) translate(104.02083333333334 57.66840277777778)"/><use xlink:href="#A" transform="matrix(1,0,0,1,1925.0000000000002,2825) translate(143.63671875 57.66840277777778)"/><use xlink:href="#B" transform="matrix(1,0,0,1,1925.0000000000002,2825) translate(207.00477430555554 57.66840277777778)"/><use xlink:href="#z" transform="matrix(1,0,0,1,1925.0000000000002,2825) translate(31.74935763888889 89.93402777777777)"/><use xlink:href="#C" transform="matrix(1,0,0,1,1925.0000000000002,2825) translate(71.36524305555555 89.93402777777777)"/><use xlink:href="#D" transform="matrix(1,0,0,1,1925.0000000000002,2825) translate(135.64475694444445 89.93402777777777)"/><use xlink:href="#E" transform="matrix(1,0,0,1,1925.0000000000002,2825) translate(184.28842013888888 89.93402777777777)"/><use xlink:href="#F" transform="matrix(1,0,0,1,1925.0000000000002,2825) translate(76.7300434027778 122.19965277777777)"/><path d="M1706.37 2940c22.1 0 40 17.9 40 40s-17.9 40-40 40H1520c-22.1 0-40-17.9-40-40s17.9-40 40-40z" stroke="#000" stroke-width="2" fill="#fff"/><g><use xlink:href="#G" transform="matrix(1,0,0,1,1485,2945) translate(80.39844618055555 25.90277777777778)"/><use xlink:href="#i" transform="matrix(1,0,0,1,1485,2945) translate(164.1332552083333 25.90277777777778)"/><use xlink:href="#H" transform="matrix(1,0,0,1,1485,2945) translate(32.37869791666666 58.16840277777778)"/></g><path d="M1566.37 2780c22.1 0 40 17.9 40 40s-17.9 40-40 40H1380c-22.1 0-40-17.9-40-40s17.9-40 40-40z" stroke="#000" stroke-width="2" fill="#fff"/><g><use xlink:href="#I" transform="matrix(1,0,0,1,1345,2785.0000000000005) translate(17.7578125 43.40277777777778)"/><use xlink:href="#b" transform="matrix(1,0,0,1,1345,2785.0000000000005) translate(95.58984374999999 43.40277777777778)"/><use xlink:href="#J" transform="matrix(1,0,0,1,1345,2785.0000000000005) translate(114.3181423611111 43.40277777777778)"/></g><path d="M1587.46 2909l5.47 2.9 3.85 2.33 2.94 1.98 2.32 1.77 1.9 1.6 1.57 1.47 1.33 1.38 1.13 1.3.97 1.26.84 1.2.73 1.18.63 1.15.54 1.14.47 1.13.4 1.12.34 1.12.27 1.14.22 1.16.16 1.2.1 1.2v.77h-.93l-.02-.72-.1-1.17-.15-1.13-.2-1.1-.27-1.1-.32-1.08-.38-1.1-.45-1.07-.52-1.08-.6-1.1-.7-1.14-.8-1.16-.95-1.2-1.1-1.28-1.3-1.34-1.53-1.44-1.85-1.57-2.3-1.72-2.88-1.95-3.8-2.3-5.43-2.87-9.47-4.4-1.1-.47h2.33zm-62.07-32.06l1.28 1.34 1.54 1.44 1.85 1.57 2.3 1.72.67.46h-1.65l-1.92-1.45-1.9-1.6-1.57-1.47-1.3-1.38-1.1-1.24.73-.63z" stroke="#3a414a" stroke-width=".05" fill="#3a414a"/><path d="M1613.66 2939h-.95v-.5l.94-.03z" fill="#3a414a"/><path stroke="#3a414a" stroke-width=".05" fill="#3a414a"/><path d="M1528.26 2874.24l-8.68 3.26-.67-15z" fill="#3a414a"/><path d="M1529.04 2874.46l-9.9 3.7-.77-17.08zm-9.02 2.37l7.46-2.8-8.03-10.08z" stroke="#3a414a" stroke-width=".05" fill="#3a414a"/><g><use xlink:href="#l" transform="matrix(1,0,0,1,1515.7847655660387,2883.478122470016) translate(0 17.22222222222222)"/></g><path d="M1688.4 2867.54l-3.3 7.84-2.36 6.3-1.9 5.88-1.63 5.8-1.4 5.98-1.2 6.34-1 6.88-.8 7.65-.55 8.7-.2 9.6h-.95l.2-9.64.54-8.73.8-7.7 1.03-6.9 1.2-6.38 1.42-6.02 1.62-5.85 1.92-5.9 2.37-6.35 3.33-7.87.5-1.1h1.04zm25.04-79.43l-.15 2.48-.82 7.7-1.02 6.9-1.2 6.38-1.42 6.02-1.63 5.85-1.9 5.9-2.38 6.36-4.04 8.85h-1.05l4.2-9.23 2.36-6.3 1.9-5.87 1.62-5.8 1.4-5.98 1.2-6.34 1.02-6.88.8-7.65.15-2.45z" stroke="#3a414a" stroke-width=".05" fill="#3a414a"/><path d="M1674.05 2938.5v.5h-.96v-.53z" fill="#3a414a"/><path stroke="#3a414a" stroke-width=".05" fill="#3a414a"/><path d="M1717.62 2787.75l-9.26-.34 5.15-14.07z" fill="#3a414a"/><path d="M1718.26 2788.25l-10.58-.4 5.88-16.06zm-9.23-1.3l7.95.3-3.53-12.4z" stroke="#3a414a" stroke-width=".05" fill="#3a414a"/><g><use xlink:href="#m" transform="matrix(1,0,0,1,1669.0013383264284,2844.5496894828693) translate(0 17.22222222222222)"/></g><path d="M2099.53 3000c36.9 0 66.84 29.93 66.84 66.84 0 36.92-29.93 66.84-66.84 66.84h-132.7c-36.9 0-66.83-29.92-66.83-66.84 0-36.9 29.93-66.84 66.84-66.84z" stroke="#000" stroke-width="2" fill="#fff"/><g><use xlink:href="#K" transform="matrix(1,0,0,1,1905,3005) translate(95.13282118055555 25.40277777777778)"/><use xlink:href="#y" transform="matrix(1,0,0,1,1905,3005) translate(9.836805555555571 57.66840277777778)"/><use xlink:href="#z" transform="matrix(1,0,0,1,1905,3005) translate(104.02083333333334 57.66840277777778)"/><use xlink:href="#A" transform="matrix(1,0,0,1,1905,3005) translate(143.63671875 57.66840277777778)"/><use xlink:href="#B" transform="matrix(1,0,0,1,1905,3005) translate(207.00477430555554 57.66840277777778)"/><use xlink:href="#z" transform="matrix(1,0,0,1,1905,3005) translate(31.74935763888889 89.93402777777777)"/><use xlink:href="#C" transform="matrix(1,0,0,1,1905,3005) translate(71.36524305555555 89.93402777777777)"/><use xlink:href="#D" transform="matrix(1,0,0,1,1905,3005) translate(135.64475694444445 89.93402777777777)"/><use xlink:href="#E" transform="matrix(1,0,0,1,1905,3005) translate(184.28842013888888 89.93402777777777)"/><use xlink:href="#v" transform="matrix(1,0,0,1,1905,3005) translate(88.07444444444445 122.19965277777777)"/></g><path d="M1847.92 2996.24l9.86 4.15 11.17 5.26 13.68 7.16 13.72 7.95-.48.83-13.7-7.94-13.64-7.15-11.14-5.24-9.83-4.14-6.9-2.56v-1.02zm-82.12-16.35l14.32.88 11.96 1.25 5.18.77v.96l-5.3-.8-11.92-1.23-14.28-.9-17.9-.34.02-.97z" stroke="#3a414a" stroke-width=".05" fill="#3a414a"/><path d="M1747.9 2979.53l-.03.95h-.53l.03-.47-.02-.47z" fill="#3a414a"/><path stroke="#3a414a" stroke-width=".05" fill="#3a414a"/><path d="M1908.76 3028.8l-14.6-3.4 4.76-7.93z" fill="#3a414a"/><path d="M1910.08 3029.58l-16.68-3.85 5.45-9.07zm-15.2-4.48l12.56 2.9-8.45-9.73z" stroke="#3a414a" stroke-width=".05" fill="#3a414a"/><g><use xlink:href="#w" transform="matrix(1,0,0,1,1797.2558867781092,2976.73403647755) translate(0 17.22222222222222)"/></g><defs><path d="M598-1118v154H368v674c0 100 37 144 132 144 23 0 62-6 92-12L629-6c-37 13-88 20-134 20-193 0-307-107-307-290v-688H20v-154h168v-266h180v266h230" id="L"/><path d="M471 26C259 26 90-98 90-318c0-256 228-303 435-329 202-27 287-16 287-108 0-139-79-219-234-219-161 0-248 86-283 164l-173-57c86-203 278-265 451-265 150 0 419 46 419 395V0H815v-152h-12C765-73 660 26 471 26zm31-159c199 0 310-134 310-271v-155c-30 35-226 55-295 64-131 17-246 59-246 186 0 116 97 176 231 176" id="M"/><path d="M65 0l393-574-370-544h210c88 136 192 297 267 435 67-142 176-302 264-435h206L661-564 1053 0H844c-94-144-206-310-287-458C484-308 366-142 273 0H65" id="N"/><path d="M613 24c-304 0-509-231-509-576 0-350 205-580 509-580 305 0 511 230 511 580 0 345-206 576-511 576zm0-161c226 0 329-195 329-415 0-222-103-419-329-419-223 0-326 196-326 419 0 220 103 415 326 415" id="O"/><path d="M338-670V0H158v-1118h173l1 207c72-158 192-221 342-221 226 0 378 139 378 422V0H872v-695c0-172-96-275-252-275-161 0-282 109-282 300" id="P"/><path d="M653-1490V0H466v-1314h-10L96-1047v-204l324-239h233" id="Q"/><g id="a"><use transform="matrix(0.010850694444444444,0,0,0.010850694444444444,0,0)" xlink:href="#L"/><use transform="matrix(0.010850694444444444,0,0,0.010850694444444444,7.378472222222222,0)" xlink:href="#M"/><use transform="matrix(0.010850694444444444,0,0,0.010850694444444444,19.856770833333332,0)" xlink:href="#N"/><use transform="matrix(0.010850694444444444,0,0,0.010850694444444444,31.488715277777775,0)" xlink:href="#O"/><use transform="matrix(0.010850694444444444,0,0,0.010850694444444444,44.81336805555556,0)" xlink:href="#P"/><use transform="matrix(0.010850694444444444,0,0,0.010850694444444444,57.06380208333333,0)" xlink:href="#Q"/></g><use transform="matrix(0.010850694444444444,0,0,0.010850694444444444,0,0)" xlink:href="#M" id="b"/><path d="M538 24C308 24 148-78 108-271l171-41c32 123 123 178 257 178 156 0 256-77 256-169 0-77-54-128-164-154l-186-44c-203-48-300-148-300-305 0-192 176-326 414-326 230 0 351 112 402 269l-163 42c-31-80-94-158-238-158-133 0-233 69-233 162 0 83 57 129 188 160l169 40c203 48 298 149 298 302 0 196-179 339-441 339" id="R"/><path d="M338-1490V0H158v-1490h180" id="S"/><path d="M295 13c-75 0-135-60-135-135s60-135 135-135 135 60 135 135S370 13 295 13zm0-809c-75 0-135-60-135-135s60-135 135-135 135 60 135 135-60 135-135 135" id="T"/><path d="M98-1322v-168h1126v168H757V0H567v-1322H98" id="U"/><g id="c"><use transform="matrix(0.010850694444444444,0,0,0.010850694444444444,0,0)" xlink:href="#P"/><use transform="matrix(0.010850694444444444,0,0,0.010850694444444444,13.129340277777777,0)" xlink:href="#R"/><use transform="matrix(0.010850694444444444,0,0,0.010850694444444444,24.85894097222222,0)" xlink:href="#S"/><use transform="matrix(0.010850694444444444,0,0,0.010850694444444444,30.240885416666664,0)" xlink:href="#T"/><use transform="matrix(0.010850694444444444,0,0,0.010850694444444444,35.89409722222222,0)" xlink:href="#U"/><use transform="matrix(0.010850694444444444,0,0,0.010850694444444444,48.61111111111111,0)" xlink:href="#M"/><use transform="matrix(0.010850694444444444,0,0,0.010850694444444444,61.08940972222223,0)" xlink:href="#N"/><use transform="matrix(0.010850694444444444,0,0,0.010850694444444444,72.72135416666667,0)" xlink:href="#O"/><use transform="matrix(0.010850694444444444,0,0,0.010850694444444444,86.04600694444444,0)" xlink:href="#P"/></g><path fill="#333" d="M428-647V0H128v-1490h294v586c65-146 175-228 341-228 232 0 385 159 385 421V0H847v-659c0-139-76-222-202-222-128 0-217 86-217 234" id="V"/><path fill="#333" d="M440 22C227 22 68-92 68-313c0-250 202-322 422-343 195-21 271-24 271-105 0-95-63-149-175-149-116 0-187 57-211 129l-275-46c57-194 237-305 487-305 240 0 474 108 474 379V0H777v-155h-10C713-51 605 22 440 22zm85-211c140 0 238-93 238-211v-121c-37 26-156 42-222 51-111 16-185 59-185 149 0 87 70 132 169 132" id="W"/><path fill="#333" d="M572 22C302 22 117-98 78-306l279-48c29 105 101 156 224 156 114 0 185-48 185-115 0-118-228-130-337-155-215-49-322-150-322-317 0-215 187-347 470-347 265 0 424 116 466 298l-266 47c-24-76-87-130-196-130-98 0-174 46-174 113 0 56 38 95 144 117l201 40c216 44 320 143 320 302 0 220-207 367-500 367" id="X"/><path fill="#333" d="M135 0v-1490h340l471 754c59 97 122 210 187 365-32-387-14-721-19-1119h312V0h-341C855-382 627-689 427-1113c32 420 16 695 20 1113H135" id="Y"/><path fill="#333" d="M128 0v-1118h278l12 217c60-163 185-234 319-234 143 0 236 81 288 251 63-172 205-251 359-251 205 0 357 138 357 381V0h-301v-697c0-126-76-187-177-187-114 0-184 79-184 196V0H789v-705c0-109-72-179-174-179-106 0-187 74-187 208V0H128" id="Z"/><path fill="#333" d="M633 22C291 22 81-200 81-553c0-345 210-579 537-579 292 0 525 185 525 567v84H378c7 183 109 277 260 277 105 0 184-46 216-132l272 51C1071-99 893 22 633 22zM380-669h474c-15-146-94-237-233-237-143 0-229 99-241 237" id="aa"/><g id="d"><use transform="matrix(0.008680555555555556,0,0,0.008680555555555556,0,0)" xlink:href="#V"/><use transform="matrix(0.008680555555555556,0,0,0.008680555555555556,11.067708333333334,0)" xlink:href="#W"/><use transform="matrix(0.008680555555555556,0,0,0.008680555555555556,21.38888888888889,0)" xlink:href="#X"/><use transform="matrix(0.008680555555555556,0,0,0.008680555555555556,31.345486111111114,0)" xlink:href="#Y"/><use transform="matrix(0.008680555555555556,0,0,0.008680555555555556,44.895833333333336,0)" xlink:href="#W"/><use transform="matrix(0.008680555555555556,0,0,0.008680555555555556,55.21701388888889,0)" xlink:href="#Z"/><use transform="matrix(0.008680555555555556,0,0,0.008680555555555556,71.44097222222223,0)" xlink:href="#aa"/></g><path d="M158 0v-1118h175l1 205c55-151 181-225 313-225 147 0 245 90 285 228 53-141 190-228 352-228 194 0 352 125 352 384V0h-181v-749c0-161-105-225-225-225-151 0-243 103-243 244V0H807v-767c0-124-93-207-219-207-131 0-250 92-250 270V0H158" id="ab"/><path d="M628 24c-324 0-524-230-524-574 0-343 198-582 503-582 237 0 487 146 487 559v75H286c9 234 145 362 343 362 132 0 231-58 273-172l174 48C1024-91 857 24 628 24zM287-650h624c-17-190-120-322-304-322-192 0-309 151-320 322" id="ac"/><g id="e"><use transform="matrix(0.010850694444444444,0,0,0.010850694444444444,0,0)" xlink:href="#P"/><use transform="matrix(0.010850694444444444,0,0,0.010850694444444444,13.129340277777777,0)" xlink:href="#M"/><use transform="matrix(0.010850694444444444,0,0,0.010850694444444444,25.60763888888889,0)" xlink:href="#ab"/><use transform="matrix(0.010850694444444444,0,0,0.010850694444444444,45.07378472222221,0)" xlink:href="#ac"/><use transform="matrix(0.010850694444444444,0,0,0.010850694444444444,57.28081597222221,0)" xlink:href="#Q"/></g><path d="M180 0v-1490h224l606 953c40 63 108 177 176 312-27-437-7-821-13-1265h190V0h-226C860-448 622-778 356-1262c27 476 11 792 15 1262H180" id="ad"/><g id="f"><use transform="matrix(0.010850694444444444,0,0,0.010850694444444444,0,0)" xlink:href="#P"/><use transform="matrix(0.010850694444444444,0,0,0.010850694444444444,13.129340277777777,0)" xlink:href="#R"/><use transform="matrix(0.010850694444444444,0,0,0.010850694444444444,24.85894097222222,0)" xlink:href="#S"/><use transform="matrix(0.010850694444444444,0,0,0.010850694444444444,30.240885416666664,0)" xlink:href="#T"/><use transform="matrix(0.010850694444444444,0,0,0.010850694444444444,35.89409722222222,0)" xlink:href="#U"/><use transform="matrix(0.010850694444444444,0,0,0.010850694444444444,48.61111111111111,0)" xlink:href="#M"/><use transform="matrix(0.010850694444444444,0,0,0.010850694444444444,61.08940972222223,0)" xlink:href="#N"/><use transform="matrix(0.010850694444444444,0,0,0.010850694444444444,72.72135416666667,0)" xlink:href="#O"/><use transform="matrix(0.010850694444444444,0,0,0.010850694444444444,86.04600694444444,0)" xlink:href="#P"/><use transform="matrix(0.010850694444444444,0,0,0.010850694444444444,99.17534722222221,0)" xlink:href="#ad"/><use transform="matrix(0.010850694444444444,0,0,0.010850694444444444,115.91796875,0)" xlink:href="#M"/><use transform="matrix(0.010850694444444444,0,0,0.010850694444444444,128.39626736111111,0)" xlink:href="#ab"/><use transform="matrix(0.010850694444444444,0,0,0.010850694444444444,147.86241319444446,0)" xlink:href="#ac"/></g><path fill="#333" d="M75-1237v-253h1217v253H837V0H531v-1237H75" id="ae"/><path fill="#333" d="M42 0l360-574-338-544h324c72 124 151 261 209 394 58-134 140-271 215-394h318L785-570 1146 0H824c-79-136-169-280-234-425C528-278 439-134 360 0H42" id="af"/><path fill="#333" d="M628 22C291 22 81-210 81-554c0-346 210-578 547-578 336 0 547 232 547 578 0 344-211 576-547 576zm0-236c160 0 242-146 242-341 0-197-82-341-242-341S387-753 387-555c0 195 81 341 241 341" id="ag"/><path fill="#333" d="M428-647V0H128v-1118h283l4 231c63-156 176-245 348-245 232 0 384 159 384 421V0H847v-659c0-139-76-222-202-222-128 0-217 86-217 234" id="ah"/><path fill="#333" d="M786 20C389 20 94-260 94-744c0-487 299-766 692-766 339 0 597 194 641 529h-309c-28-162-156-258-326-258-233 0-388 179-388 495 0 323 157 493 387 493 170 0 298-97 328-259h309c-34 277-266 530-642 530" id="ai"/><path fill="#333" d="M628 22C291 22 81-210 81-554c0-346 210-578 547-578 265 0 455 142 497 372l-279 52c-25-116-99-188-215-188-160 0-244 139-244 341 0 200 84 341 244 341 116 0 193-74 217-195l279 51C1085-123 896 22 628 22" id="aj"/><path fill="#333" d="M128 418v-1536h295v188h14c41-89 129-202 319-202 248 0 453 193 453 575 0 372-197 576-455 576-183 0-275-108-317-198h-9v597H128zm534-640c156 0 240-139 240-336 0-196-83-334-240-334-154 0-241 131-241 334 0 202 88 336 241 336" id="ak"/><path fill="#333" d="M683-1118v229H474v562c0 71 29 104 102 104 23 0 73-7 95-13l43 225C647 9 580 16 520 16 296 16 174-96 174-301v-588H20v-229h154v-266h300v266h209" id="al"/><g id="g"><use transform="matrix(0.008680555555555556,0,0,0.008680555555555556,0,0)" xlink:href="#V"/><use transform="matrix(0.008680555555555556,0,0,0.008680555555555556,11.067708333333334,0)" xlink:href="#W"/><use transform="matrix(0.008680555555555556,0,0,0.008680555555555556,21.38888888888889,0)" xlink:href="#X"/><use transform="matrix(0.008680555555555556,0,0,0.008680555555555556,30.034722222222218,0)" xlink:href="#ae"/><use transform="matrix(0.008680555555555556,0,0,0.008680555555555556,40.598958333333336,0)" xlink:href="#W"/><use transform="matrix(0.008680555555555556,0,0,0.008680555555555556,50.92013888888889,0)" xlink:href="#af"/><use transform="matrix(0.008680555555555556,0,0,0.008680555555555556,60.876736111111114,0)" xlink:href="#ag"/><use transform="matrix(0.008680555555555556,0,0,0.008680555555555556,71.77951388888889,0)" xlink:href="#ah"/><use transform="matrix(0.008680555555555556,0,0,0.008680555555555556,82.84722222222221,0)" xlink:href="#ai"/><use transform="matrix(0.008680555555555556,0,0,0.008680555555555556,95.9982638888889,0)" xlink:href="#ag"/><use transform="matrix(0.008680555555555556,0,0,0.008680555555555556,106.90104166666666,0)" xlink:href="#ah"/><use transform="matrix(0.008680555555555556,0,0,0.008680555555555556,117.96874999999999,0)" xlink:href="#aj"/><use transform="matrix(0.008680555555555556,0,0,0.008680555555555556,128.42881944444443,0)" xlink:href="#aa"/><use transform="matrix(0.008680555555555556,0,0,0.008680555555555556,139.0190972222222,0)" xlink:href="#ak"/><use transform="matrix(0.008680555555555556,0,0,0.008680555555555556,150.22569444444443,0)" xlink:href="#al"/></g><path d="M537 14c-226 0-379-139-379-422v-710h180v695c0 172 97 275 253 275 160 0 281-109 281-300v-670h181V0H879v-209C806-46 684 14 537 14" id="am"/><path d="M611 442c-248 0-391-105-460-228l146-94c47 65 117 165 314 165 178 0 307-82 307-266v-224h-17C863-141 792-18 576-18c-268 0-472-195-472-546 0-346 197-568 476-568 216 0 288 133 326 193h17v-179h175V29c0 289-215 413-487 413zm-5-620c203 0 314-146 314-390 0-237-108-403-314-403-213 0-319 180-319 403 0 230 109 390 319 390" id="an"/><g id="h"><use transform="matrix(0.010850694444444444,0,0,0.010850694444444444,0,0)" xlink:href="#am"/><use transform="matrix(0.010850694444444444,0,0,0.010850694444444444,13.140190972222221,0)" xlink:href="#R"/><use transform="matrix(0.010850694444444444,0,0,0.010850694444444444,24.869791666666664,0)" xlink:href="#M"/><use transform="matrix(0.010850694444444444,0,0,0.010850694444444444,37.34809027777777,0)" xlink:href="#an"/><use transform="matrix(0.010850694444444444,0,0,0.010850694444444444,50.976562499999986,0)" xlink:href="#ac"/><use transform="matrix(0.010850694444444444,0,0,0.010850694444444444,63.18359375,0)" xlink:href="#Q"/></g><use transform="matrix(0.010850694444444444,0,0,0.010850694444444444,0,0)" xlink:href="#M" id="i"/><path d="M763 24c-353 0-583-224-583-531v-983h190v968c0 214 149 370 393 370 243 0 391-156 391-370v-968h190v983c0 307-230 531-581 531" id="ao"/><g id="j"><use transform="matrix(0.010850694444444444,0,0,0.010850694444444444,0,0)" xlink:href="#P"/><use transform="matrix(0.010850694444444444,0,0,0.010850694444444444,13.129340277777777,0)" xlink:href="#R"/><use transform="matrix(0.010850694444444444,0,0,0.010850694444444444,24.85894097222222,0)" xlink:href="#S"/><use transform="matrix(0.010850694444444444,0,0,0.010850694444444444,30.240885416666664,0)" xlink:href="#T"/><use transform="matrix(0.010850694444444444,0,0,0.010850694444444444,35.89409722222222,0)" xlink:href="#U"/><use transform="matrix(0.010850694444444444,0,0,0.010850694444444444,48.61111111111111,0)" xlink:href="#M"/><use transform="matrix(0.010850694444444444,0,0,0.010850694444444444,61.08940972222223,0)" xlink:href="#N"/><use transform="matrix(0.010850694444444444,0,0,0.010850694444444444,72.72135416666667,0)" xlink:href="#O"/><use transform="matrix(0.010850694444444444,0,0,0.010850694444444444,86.04600694444444,0)" xlink:href="#P"/><use transform="matrix(0.010850694444444444,0,0,0.010850694444444444,99.17534722222221,0)" xlink:href="#ad"/><use transform="matrix(0.010850694444444444,0,0,0.010850694444444444,115.91796875,0)" xlink:href="#M"/><use transform="matrix(0.010850694444444444,0,0,0.010850694444444444,128.39626736111111,0)" xlink:href="#ab"/><use transform="matrix(0.010850694444444444,0,0,0.010850694444444444,147.86241319444446,0)" xlink:href="#ac"/><use transform="matrix(0.010850694444444444,0,0,0.010850694444444444,160.81814236111111,0)" xlink:href="#ao"/><use transform="matrix(0.010850694444444444,0,0,0.010850694444444444,177.35460069444446,0)" xlink:href="#R"/><use transform="matrix(0.010850694444444444,0,0,0.010850694444444444,189.0842013888889,0)" xlink:href="#M"/><use transform="matrix(0.010850694444444444,0,0,0.010850694444444444,201.56250000000003,0)" xlink:href="#an"/><use transform="matrix(0.010850694444444444,0,0,0.010850694444444444,215.19097222222226,0)" xlink:href="#ac"/></g><path d="M783 20c-382 0-661-292-661-764 0-473 279-766 661-766 302 0 548 182 601 489h-190c-42-204-217-313-411-313-268 0-476 208-476 590 0 381 209 588 476 588 195 0 369-110 411-313h190c-52 303-296 489-601 489" id="ap"/><path d="M613 24c-304 0-509-231-509-576 0-350 205-580 509-580 216 0 392 114 453 309l-173 49c-33-115-133-197-280-197-223 0-326 196-326 419 0 220 103 415 326 415 150 0 252-85 285-206l172 49C1010-95 832 24 613 24" id="aq"/><path d="M158 418v-1536h174v179h20c37-59 106-193 324-193 279 0 474 222 474 576 0 356-194 580-473 580-213 0-288-135-325-197h-14v591H158zm492-555c209 0 317-186 317-421 0-232-105-413-317-413-206 0-314 166-314 413 0 249 111 421 314 421" id="ar"/><g id="k"><use transform="matrix(0.010850694444444444,0,0,0.010850694444444444,0,0)" xlink:href="#U"/><use transform="matrix(0.010850694444444444,0,0,0.010850694444444444,12.71701388888889,0)" xlink:href="#M"/><use transform="matrix(0.010850694444444444,0,0,0.010850694444444444,25.1953125,0)" xlink:href="#N"/><use transform="matrix(0.010850694444444444,0,0,0.010850694444444444,36.82725694444444,0)" xlink:href="#O"/><use transform="matrix(0.010850694444444444,0,0,0.010850694444444444,50.15190972222222,0)" xlink:href="#P"/><use transform="matrix(0.010850694444444444,0,0,0.010850694444444444,63.28125,0)" xlink:href="#ap"/><use transform="matrix(0.010850694444444444,0,0,0.010850694444444444,79.51388888888889,0)" xlink:href="#O"/><use transform="matrix(0.010850694444444444,0,0,0.010850694444444444,92.83854166666666,0)" xlink:href="#P"/><use transform="matrix(0.010850694444444444,0,0,0.010850694444444444,105.96788194444441,0)" xlink:href="#aq"/><use transform="matrix(0.010850694444444444,0,0,0.010850694444444444,118.66319444444441,0)" xlink:href="#ac"/><use transform="matrix(0.010850694444444444,0,0,0.010850694444444444,131.6189236111111,0)" xlink:href="#ar"/><use transform="matrix(0.010850694444444444,0,0,0.010850694444444444,145.22569444444443,0)" xlink:href="#L"/></g><path fill="#333" d="M513 14c-232 0-385-159-385-421v-711h300v659c0 139 76 222 202 222 127 0 217-86 217-234v-647h301V0H864l-4-232C797-74 683 14 513 14" id="as"/><path fill="#333" d="M625 442c-280 0-454-114-503-274l258-72c28 63 97 128 243 128 153 0 246-69 246-216v-206h-23C805-108 717-16 536-16 284-16 81-191 81-561c0-378 208-571 456-571 188 0 280 113 321 202h13v-188h295V-9c0 303-226 451-541 451zm5-686c153 0 240-119 240-319 0-198-86-329-240-329-158 0-241 137-241 329 0 195 85 319 241 319" id="at"/><path fill="#333" d="M789 20C394 20 94-260 94-744c0-487 300-766 695-766s695 279 695 766c0 485-300 764-695 764zm0-271c231 0 385-174 385-493 0-321-154-495-385-495s-385 175-385 495c0 319 154 493 385 493" id="au"/><path fill="#333" d="M750-1118v229H516V0H217v-889H20v-229h197v-86c0-238 156-356 363-356 94 0 178 20 215 31l-54 226c-25-7-61-15-100-15-123-3-131 84-125 200h234" id="av"/><g id="l"><use transform="matrix(0.008680555555555556,0,0,0.008680555555555556,0,0)" xlink:href="#as"/><use transform="matrix(0.008680555555555556,0,0,0.008680555555555556,11.067708333333334,0)" xlink:href="#X"/><use transform="matrix(0.008680555555555556,0,0,0.008680555555555556,21.024305555555557,0)" xlink:href="#W"/><use transform="matrix(0.008680555555555556,0,0,0.008680555555555556,31.345486111111114,0)" xlink:href="#at"/><use transform="matrix(0.008680555555555556,0,0,0.008680555555555556,42.578125,0)" xlink:href="#aa"/><use transform="matrix(0.008680555555555556,0,0,0.008680555555555556,53.16840277777778,0)" xlink:href="#au"/><use transform="matrix(0.008680555555555556,0,0,0.008680555555555556,66.86631944444444,0)" xlink:href="#av"/></g><path fill="#333" d="M128 0v-1118h300V0H128zm150-1264c-91 0-165-68-165-154 0-85 74-154 165-154 90 0 165 69 165 154 0 86-75 154-165 154" id="aw"/><g id="m"><use transform="matrix(0.008680555555555556,0,0,0.008680555555555556,0,0)" xlink:href="#aj"/><use transform="matrix(0.008680555555555556,0,0,0.008680555555555556,10.460069444444445,0)" xlink:href="#aw"/><use transform="matrix(0.008680555555555556,0,0,0.008680555555555556,15.277777777777779,0)" xlink:href="#al"/><use transform="matrix(0.008680555555555556,0,0,0.008680555555555556,21.788194444444446,0)" xlink:href="#aw"/><use transform="matrix(0.008680555555555556,0,0,0.008680555555555556,26.60590277777778,0)" xlink:href="#ah"/><use transform="matrix(0.008680555555555556,0,0,0.008680555555555556,37.673611111111114,0)" xlink:href="#at"/></g><path d="M409 0L70-1118h191c89 329 165 560 243 925 75-353 154-601 240-925h192c85 325 161 564 235 922 77-354 157-598 244-922h191L1267 0h-179c-86-307-176-590-250-913C763-588 675-308 588 0H409" id="ax"/><path d="M158 0v-1118h174v172h12c41-113 157-188 290-188 26 0 70 2 91 3v181c-11-2-60-10-108-10-161 0-279 109-279 260V0H158" id="ay"/><path d="M158 0v-1490h180v865h22l478-493h223L593-638 1096 0H865L456-523 338-412V0H158" id="az"/><g id="n"><use transform="matrix(0.010850694444444444,0,0,0.010850694444444444,0,0)" xlink:href="#ax"/><use transform="matrix(0.010850694444444444,0,0,0.010850694444444444,17.784288194444446,0)" xlink:href="#O"/><use transform="matrix(0.010850694444444444,0,0,0.010850694444444444,31.10894097222222,0)" xlink:href="#ay"/><use transform="matrix(0.010850694444444444,0,0,0.010850694444444444,39.82204861111111,0)" xlink:href="#az"/><use transform="matrix(0.010850694444444444,0,0,0.010850694444444444,52.018229166666664,0)" xlink:href="#Q"/></g><path d="M158 0v-1118h180V0H158zm91-1301c-68 0-125-53-125-119s57-119 125-119c69 0 126 53 126 119s-57 119-126 119" id="aA"/><path d="M481 0L54-1118h197c107 314 236 620 325 951 87-331 217-637 324-951h197L670 0H481" id="aB"/><g id="o"><use transform="matrix(0.010850694444444444,0,0,0.010850694444444444,0,0)" xlink:href="#aq"/><use transform="matrix(0.010850694444444444,0,0,0.010850694444444444,12.6953125,0)" xlink:href="#ay"/><use transform="matrix(0.010850694444444444,0,0,0.010850694444444444,20.692274305555557,0)" xlink:href="#ac"/><use transform="matrix(0.010850694444444444,0,0,0.010850694444444444,33.865017361111114,0)" xlink:href="#M"/><use transform="matrix(0.010850694444444444,0,0,0.010850694444444444,46.34331597222223,0)" xlink:href="#L"/><use transform="matrix(0.010850694444444444,0,0,0.010850694444444444,53.61328125000001,0)" xlink:href="#aA"/><use transform="matrix(0.010850694444444444,0,0,0.010850694444444444,58.99522569444445,0)" xlink:href="#aB"/><use transform="matrix(0.010850694444444444,0,0,0.010850694444444444,71.05034722222223,0)" xlink:href="#ac"/></g><g id="p"><use transform="matrix(0.010850694444444444,0,0,0.010850694444444444,0,0)" xlink:href="#ax"/><use transform="matrix(0.010850694444444444,0,0,0.010850694444444444,17.784288194444446,0)" xlink:href="#O"/><use transform="matrix(0.010850694444444444,0,0,0.010850694444444444,31.10894097222222,0)" xlink:href="#ay"/><use transform="matrix(0.010850694444444444,0,0,0.010850694444444444,39.82204861111111,0)" xlink:href="#az"/></g><path d="M338-670V0H158v-1490h180v566c73-149 190-208 336-208 226 0 379 139 379 422V0H872v-695c0-172-96-275-252-275-161 0-282 109-282 300" id="aC"/><g id="q"><use transform="matrix(0.010850694444444444,0,0,0.010850694444444444,0,0)" xlink:href="#ax"/><use transform="matrix(0.010850694444444444,0,0,0.010850694444444444,18.18576388888889,0)" xlink:href="#aC"/><use transform="matrix(0.010850694444444444,0,0,0.010850694444444444,31.32595486111111,0)" xlink:href="#ac"/><use transform="matrix(0.010850694444444444,0,0,0.010850694444444444,44.28168402777778,0)" xlink:href="#ay"/><use transform="matrix(0.010850694444444444,0,0,0.010850694444444444,52.27864583333333,0)" xlink:href="#ac"/></g><g id="r"><use transform="matrix(0.010850694444444444,0,0,0.010850694444444444,0,0)" xlink:href="#L"/><use transform="matrix(0.010850694444444444,0,0,0.010850694444444444,7.269965277777778,0)" xlink:href="#aC"/><use transform="matrix(0.010850694444444444,0,0,0.010850694444444444,20.41015625,0)" xlink:href="#ac"/></g><path d="M140 405l46-156c120 36 205 19 263-150l32-93L54-1118h197c107 313 237 620 324 950 87-331 219-637 326-950h196L606 167c-68 178-176 259-334 259-64 0-113-12-132-21" id="aD"/><g id="s"><use transform="matrix(0.010850694444444444,0,0,0.010850694444444444,0,0)" xlink:href="#aC"/><use transform="matrix(0.010850694444444444,0,0,0.010850694444444444,12.81467013888889,0)" xlink:href="#aD"/><use transform="matrix(0.010850694444444444,0,0,0.010850694444444444,25.303819444444443,0)" xlink:href="#ar"/><use transform="matrix(0.010850694444444444,0,0,0.010850694444444444,38.91059027777777,0)" xlink:href="#O"/><use transform="matrix(0.010850694444444444,0,0,0.010850694444444444,52.23524305555556,0)" xlink:href="#L"/><use transform="matrix(0.010850694444444444,0,0,0.010850694444444444,59.50520833333333,0)" xlink:href="#aC"/><use transform="matrix(0.010850694444444444,0,0,0.010850694444444444,72.64539930555554,0)" xlink:href="#ac"/><use transform="matrix(0.010850694444444444,0,0,0.010850694444444444,85.60112847222221,0)" xlink:href="#L"/><use transform="matrix(0.010850694444444444,0,0,0.010850694444444444,92.87109374999997,0)" xlink:href="#aA"/><use transform="matrix(0.010850694444444444,0,0,0.010850694444444444,98.25303819444441,0)" xlink:href="#aq"/><use transform="matrix(0.010850694444444444,0,0,0.010850694444444444,111.16536458333331,0)" xlink:href="#M"/><use transform="matrix(0.010850694444444444,0,0,0.010850694444444444,123.64366319444441,0)" xlink:href="#S"/></g><g id="t"><use transform="matrix(0.010850694444444444,0,0,0.010850694444444444,0,0)" xlink:href="#L"/><use transform="matrix(0.010850694444444444,0,0,0.010850694444444444,7.378472222222222,0)" xlink:href="#M"/><use transform="matrix(0.010850694444444444,0,0,0.010850694444444444,19.856770833333332,0)" xlink:href="#N"/><use transform="matrix(0.010850694444444444,0,0,0.010850694444444444,31.488715277777775,0)" xlink:href="#O"/><use transform="matrix(0.010850694444444444,0,0,0.010850694444444444,44.81336805555556,0)" xlink:href="#P"/></g><g id="u"><use transform="matrix(0.010850694444444444,0,0,0.010850694444444444,0,0)" xlink:href="#ax"/><use transform="matrix(0.010850694444444444,0,0,0.010850694444444444,18.18576388888889,0)" xlink:href="#M"/><use transform="matrix(0.010850694444444444,0,0,0.010850694444444444,30.6640625,0)" xlink:href="#R"/></g><path d="M577 24c-279 0-473-224-473-580 0-354 195-576 474-576 218 0 287 134 324 193h14v-551h180V0H922v-173h-20C865-111 790 24 577 24zm27-161c203 0 314-172 314-421 0-247-108-413-314-413-212 0-317 181-317 413 0 235 108 421 317 421" id="aE"/><path d="M678-1118v154H420V0H240v-964H20v-154h220v-149c0-194 155-293 318-293 85 0 141 18 168 30l-50 154c-19-6-47-17-97-17-111 0-159 58-159 166v109h258" id="aF"/><g id="v"><use transform="matrix(0.010850694444444444,0,0,0.010850694444444444,0,0)" xlink:href="#aE"/><use transform="matrix(0.010850694444444444,0,0,0.010850694444444444,13.606770833333332,0)" xlink:href="#ac"/><use transform="matrix(0.010850694444444444,0,0,0.010850694444444444,26.5625,0)" xlink:href="#aF"/><use transform="matrix(0.010850694444444444,0,0,0.010850694444444444,34.787326388888886,0)" xlink:href="#aA"/><use transform="matrix(0.010850694444444444,0,0,0.010850694444444444,40.16927083333333,0)" xlink:href="#P"/><use transform="matrix(0.010850694444444444,0,0,0.010850694444444444,53.29861111111111,0)" xlink:href="#ac"/><use transform="matrix(0.010850694444444444,0,0,0.010850694444444444,66.25434027777777,0)" xlink:href="#aE"/></g><path fill="#333" d="M537 19C279 19 81-185 81-557c0-382 206-575 454-575 190 0 278 113 318 202h10v-560h300V0H868v-179h-15C812-89 719 19 537 19zm92-241c153 0 240-134 240-336 0-203-86-334-240-334-158 0-240 138-240 334 0 197 84 336 240 336" id="aG"/><g id="w"><use transform="matrix(0.008680555555555556,0,0,0.008680555555555556,0,0)" xlink:href="#aj"/><use transform="matrix(0.008680555555555556,0,0,0.008680555555555556,10.460069444444445,0)" xlink:href="#aw"/><use transform="matrix(0.008680555555555556,0,0,0.008680555555555556,15.277777777777779,0)" xlink:href="#al"/><use transform="matrix(0.008680555555555556,0,0,0.008680555555555556,21.614583333333336,0)" xlink:href="#aa"/><use transform="matrix(0.008680555555555556,0,0,0.008680555555555556,32.204861111111114,0)" xlink:href="#aG"/></g><path d="M154 0v-137l495-537c165-179 249-281 249-418 0-156-121-253-280-253-170 0-278 110-278 278H158c0-264 200-443 465-443 266 0 455 183 455 416 0 161-73 288-336 568L416-179v12h687V0H154" id="aH"/><g id="x"><use transform="matrix(0.010850694444444444,0,0,0.010850694444444444,0,0)" xlink:href="#ax"/><use transform="matrix(0.010850694444444444,0,0,0.010850694444444444,17.784288194444446,0)" xlink:href="#O"/><use transform="matrix(0.010850694444444444,0,0,0.010850694444444444,31.10894097222222,0)" xlink:href="#ay"/><use transform="matrix(0.010850694444444444,0,0,0.010850694444444444,39.82204861111111,0)" xlink:href="#az"/><use transform="matrix(0.010850694444444444,0,0,0.010850694444444444,52.018229166666664,0)" xlink:href="#aH"/></g><g id="y"><use transform="matrix(0.010850694444444444,0,0,0.010850694444444444,0,0)" xlink:href="#L"/><use transform="matrix(0.010850694444444444,0,0,0.010850694444444444,7.703993055555555,0)" xlink:href="#aD"/><use transform="matrix(0.010850694444444444,0,0,0.010850694444444444,20.19314236111111,0)" xlink:href="#ar"/><use transform="matrix(0.010850694444444444,0,0,0.010850694444444444,33.79991319444444,0)" xlink:href="#aA"/><use transform="matrix(0.010850694444444444,0,0,0.010850694444444444,39.181857638888886,0)" xlink:href="#aq"/><use transform="matrix(0.010850694444444444,0,0,0.010850694444444444,52.09418402777778,0)" xlink:href="#M"/><use transform="matrix(0.010850694444444444,0,0,0.010850694444444444,64.57248263888889,0)" xlink:href="#S"/><use transform="matrix(0.010850694444444444,0,0,0.010850694444444444,69.95442708333333,0)" xlink:href="#S"/><use transform="matrix(0.010850694444444444,0,0,0.010850694444444444,75.44487847222221,0)" xlink:href="#aD"/></g><g id="z"><use transform="matrix(0.010850694444444444,0,0,0.010850694444444444,0,0)" xlink:href="#L"/><use transform="matrix(0.010850694444444444,0,0,0.010850694444444444,7.269965277777778,0)" xlink:href="#aC"/><use transform="matrix(0.010850694444444444,0,0,0.010850694444444444,20.41015625,0)" xlink:href="#ac"/></g><g id="A"><use transform="matrix(0.010850694444444444,0,0,0.010850694444444444,0,0)" xlink:href="#ar"/><use transform="matrix(0.010850694444444444,0,0,0.010850694444444444,13.606770833333332,0)" xlink:href="#S"/><use transform="matrix(0.010850694444444444,0,0,0.010850694444444444,18.98871527777778,0)" xlink:href="#M"/><use transform="matrix(0.010850694444444444,0,0,0.010850694444444444,31.46701388888889,0)" xlink:href="#aq"/><use transform="matrix(0.010850694444444444,0,0,0.010850694444444444,44.162326388888886,0)" xlink:href="#ac"/></g><g id="B"><use transform="matrix(0.010850694444444444,0,0,0.010850694444444444,0,0)" xlink:href="#L"/><use transform="matrix(0.010850694444444444,0,0,0.010850694444444444,7.269965277777778,0)" xlink:href="#aC"/><use transform="matrix(0.010850694444444444,0,0,0.010850694444444444,20.41015625,0)" xlink:href="#M"/><use transform="matrix(0.010850694444444444,0,0,0.010850694444444444,32.888454861111114,0)" xlink:href="#L"/></g><g id="C"><use transform="matrix(0.010850694444444444,0,0,0.010850694444444444,0,0)" xlink:href="#P"/><use transform="matrix(0.010850694444444444,0,0,0.010850694444444444,13.129340277777777,0)" xlink:href="#M"/><use transform="matrix(0.010850694444444444,0,0,0.010850694444444444,25.60763888888889,0)" xlink:href="#ab"/><use transform="matrix(0.010850694444444444,0,0,0.010850694444444444,45.07378472222221,0)" xlink:href="#ac"/></g><g id="D"><use transform="matrix(0.010850694444444444,0,0,0.010850694444444444,0,0)" xlink:href="#ax"/><use transform="matrix(0.010850694444444444,0,0,0.010850694444444444,18.18576388888889,0)" xlink:href="#M"/><use transform="matrix(0.010850694444444444,0,0,0.010850694444444444,30.6640625,0)" xlink:href="#R"/></g><g id="E"><use transform="matrix(0.010850694444444444,0,0,0.010850694444444444,0,0)" xlink:href="#aF"/><use transform="matrix(0.010850694444444444,0,0,0.010850694444444444,8.22482638888889,0)" xlink:href="#aA"/><use transform="matrix(0.010850694444444444,0,0,0.010850694444444444,13.606770833333332,0)" xlink:href="#ay"/><use transform="matrix(0.010850694444444444,0,0,0.010850694444444444,21.97265625,0)" xlink:href="#R"/><use transform="matrix(0.010850694444444444,0,0,0.010850694444444444,33.70225694444444,0)" xlink:href="#L"/></g><path d="M677 24c-213 0-288-135-325-197h-20V0H158v-1490h180v551h14c37-59 106-193 324-193 279 0 474 222 474 576 0 356-194 580-473 580zm-27-161c209 0 317-186 317-421 0-232-105-413-317-413-206 0-314 166-314 413 0 249 111 421 314 421" id="aI"/><g id="F"><use transform="matrix(0.010850694444444444,0,0,0.010850694444444444,0,0)" xlink:href="#ar"/><use transform="matrix(0.010850694444444444,0,0,0.010850694444444444,13.606770833333332,0)" xlink:href="#am"/><use transform="matrix(0.010850694444444444,0,0,0.010850694444444444,26.746961805555554,0)" xlink:href="#aI"/><use transform="matrix(0.010850694444444444,0,0,0.010850694444444444,40.353732638888886,0)" xlink:href="#S"/><use transform="matrix(0.010850694444444444,0,0,0.010850694444444444,45.73567708333333,0)" xlink:href="#aA"/><use transform="matrix(0.010850694444444444,0,0,0.010850694444444444,51.11762152777778,0)" xlink:href="#R"/><use transform="matrix(0.010850694444444444,0,0,0.010850694444444444,62.84722222222221,0)" xlink:href="#aC"/><use transform="matrix(0.010850694444444444,0,0,0.010850694444444444,75.98741319444443,0)" xlink:href="#ac"/><use transform="matrix(0.010850694444444444,0,0,0.010850694444444444,88.94314236111111,0)" xlink:href="#aE"/></g><g id="G"><use transform="matrix(0.010850694444444444,0,0,0.010850694444444444,0,0)" xlink:href="#am"/><use transform="matrix(0.010850694444444444,0,0,0.010850694444444444,13.140190972222221,0)" xlink:href="#R"/><use transform="matrix(0.010850694444444444,0,0,0.010850694444444444,24.869791666666664,0)" xlink:href="#M"/><use transform="matrix(0.010850694444444444,0,0,0.010850694444444444,37.34809027777777,0)" xlink:href="#an"/><use transform="matrix(0.010850694444444444,0,0,0.010850694444444444,50.976562499999986,0)" xlink:href="#ac"/><use transform="matrix(0.010850694444444444,0,0,0.010850694444444444,63.93229166666666,0)" xlink:href="#aH"/></g><g id="H"><use transform="matrix(0.010850694444444444,0,0,0.010850694444444444,0,0)" xlink:href="#U"/><use transform="matrix(0.010850694444444444,0,0,0.010850694444444444,12.71701388888889,0)" xlink:href="#M"/><use transform="matrix(0.010850694444444444,0,0,0.010850694444444444,25.1953125,0)" xlink:href="#N"/><use transform="matrix(0.010850694444444444,0,0,0.010850694444444444,36.82725694444444,0)" xlink:href="#O"/><use transform="matrix(0.010850694444444444,0,0,0.010850694444444444,50.15190972222222,0)" xlink:href="#P"/><use transform="matrix(0.010850694444444444,0,0,0.010850694444444444,63.28125,0)" xlink:href="#ad"/><use transform="matrix(0.010850694444444444,0,0,0.010850694444444444,80.02387152777777,0)" xlink:href="#M"/><use transform="matrix(0.010850694444444444,0,0,0.010850694444444444,92.50217013888889,0)" xlink:href="#ab"/><use transform="matrix(0.010850694444444444,0,0,0.010850694444444444,111.96831597222221,0)" xlink:href="#ac"/><use transform="matrix(0.010850694444444444,0,0,0.010850694444444444,124.92404513888889,0)" xlink:href="#ao"/><use transform="matrix(0.010850694444444444,0,0,0.010850694444444444,141.46050347222223,0)" xlink:href="#R"/><use transform="matrix(0.010850694444444444,0,0,0.010850694444444444,153.19010416666669,0)" xlink:href="#M"/><use transform="matrix(0.010850694444444444,0,0,0.010850694444444444,165.6684027777778,0)" xlink:href="#an"/><use transform="matrix(0.010850694444444444,0,0,0.010850694444444444,179.29687500000003,0)" xlink:href="#ac"/></g><g id="I"><use transform="matrix(0.010850694444444444,0,0,0.010850694444444444,0,0)" xlink:href="#P"/><use transform="matrix(0.010850694444444444,0,0,0.010850694444444444,13.129340277777777,0)" xlink:href="#M"/><use transform="matrix(0.010850694444444444,0,0,0.010850694444444444,25.60763888888889,0)" xlink:href="#ab"/><use transform="matrix(0.010850694444444444,0,0,0.010850694444444444,45.07378472222221,0)" xlink:href="#ac"/><use transform="matrix(0.010850694444444444,0,0,0.010850694444444444,58.02951388888888,0)" xlink:href="#aH"/></g><g id="J"><use transform="matrix(0.010850694444444444,0,0,0.010850694444444444,0,0)" xlink:href="#U"/><use transform="matrix(0.010850694444444444,0,0,0.010850694444444444,12.71701388888889,0)" xlink:href="#M"/><use transform="matrix(0.010850694444444444,0,0,0.010850694444444444,25.1953125,0)" xlink:href="#N"/><use transform="matrix(0.010850694444444444,0,0,0.010850694444444444,36.82725694444444,0)" xlink:href="#O"/><use transform="matrix(0.010850694444444444,0,0,0.010850694444444444,50.15190972222222,0)" xlink:href="#P"/><use transform="matrix(0.010850694444444444,0,0,0.010850694444444444,63.28125,0)" xlink:href="#ad"/><use transform="matrix(0.010850694444444444,0,0,0.010850694444444444,80.02387152777777,0)" xlink:href="#M"/><use transform="matrix(0.010850694444444444,0,0,0.010850694444444444,92.50217013888889,0)" xlink:href="#ab"/><use transform="matrix(0.010850694444444444,0,0,0.010850694444444444,111.96831597222221,0)" xlink:href="#ac"/></g><path d="M635 20c-292 0-500-160-510-396h192c11 142 145 229 315 229 187 0 323-105 323-260 0-161-125-274-346-274H488v-165h121c174 0 294-100 294-254 0-148-104-245-266-245-152 0-291 85-297 230H157c8-234 222-395 484-395 278 0 448 188 448 400 0 168-95 291-247 336v12c190 31 301 169 301 357 0 244-216 425-508 425" id="aJ"/><g id="K"><use transform="matrix(0.010850694444444444,0,0,0.010850694444444444,0,0)" xlink:href="#ax"/><use transform="matrix(0.010850694444444444,0,0,0.010850694444444444,17.784288194444446,0)" xlink:href="#O"/><use transform="matrix(0.010850694444444444,0,0,0.010850694444444444,31.10894097222222,0)" xlink:href="#ay"/><use transform="matrix(0.010850694444444444,0,0,0.010850694444444444,39.82204861111111,0)" xlink:href="#az"/><use transform="matrix(0.010850694444444444,0,0,0.010850694444444444,52.018229166666664,0)" xlink:href="#aJ"/></g></defs></g></svg>